<svg width="28" height="24" viewBox="0 0 28 24" fill="none" xmlns="http://www.w3.org/2000/svg">
<path d="M8.24993 8.57143C8.47726 8.57143 8.69528 8.48112 8.85602 8.32038C9.01677 8.15963 9.10707 7.94161 9.10707 7.71429C9.10707 7.48696 9.01677 7.26894 8.85602 7.10819C8.69528 6.94745 8.47726 6.85714 8.24993 6.85714C8.0226 6.85714 7.80458 6.94745 7.64384 7.10819C7.48309 7.26894 7.39279 7.48696 7.39279 7.71429C7.39279 7.94161 7.48309 8.15963 7.64384 8.32038C7.80458 8.48112 8.0226 8.57143 8.24993 8.57143ZM10.8214 8.57143C11.0487 8.57143 11.2667 8.48112 11.4275 8.32038C11.5882 8.15963 11.6785 7.94161 11.6785 7.71429C11.6785 7.48696 11.5882 7.26894 11.4275 7.10819C11.2667 6.94745 11.0487 6.85714 10.8214 6.85714C10.594 6.85714 10.376 6.94745 10.2153 7.10819C10.0545 7.26894 9.96422 7.48696 9.96422 7.71429C9.96422 7.94161 10.0545 8.15963 10.2153 8.32038C10.376 8.48112 10.594 8.57143 10.8214 8.57143ZM14.2499 7.71429C14.2499 7.94161 14.1596 8.15963 13.9989 8.32038C13.8381 8.48112 13.6201 8.57143 13.3928 8.57143C13.1655 8.57143 12.9474 8.48112 12.7867 8.32038C12.6259 8.15963 12.5356 7.94161 12.5356 7.71429C12.5356 7.48696 12.6259 7.26894 12.7867 7.10819C12.9474 6.94745 13.1655 6.85714 13.3928 6.85714C13.6201 6.85714 13.8381 6.94745 13.9989 7.10819C14.1596 7.26894 14.2499 7.48696 14.2499 7.71429Z" fill="#E5F4FD"/>
<path d="M21.1071 0C22.0164 0 22.8885 0.361224 23.5314 1.00421C24.1744 1.64719 24.5356 2.51926 24.5356 3.42857C25.445 3.42857 26.317 3.78979 26.96 4.43278C27.603 5.07576 27.9642 5.94783 27.9642 6.85714V20.5714C27.9642 21.4807 27.603 22.3528 26.96 22.9958C26.317 23.6388 25.445 24 24.5356 24H7.39279C6.48347 24 5.6114 23.6388 4.96842 22.9958C4.32544 22.3528 3.96422 21.4807 3.96422 20.5714C3.0549 20.5714 2.18283 20.2102 1.53985 19.5672C0.896868 18.9242 0.535645 18.0522 0.535645 17.1429V3.42857C0.535645 2.51926 0.896868 1.64719 1.53985 1.00421C2.18283 0.361224 3.0549 0 3.96422 0H21.1071ZM3.96422 18.8571V6.85714C3.96422 5.94783 4.32544 5.07576 4.96842 4.43278C5.6114 3.78979 6.48347 3.42857 7.39279 3.42857H22.8214C22.8214 2.97391 22.6407 2.53788 22.3193 2.21639C21.9978 1.8949 21.5617 1.71429 21.1071 1.71429H3.96422C3.50956 1.71429 3.07352 1.8949 2.75203 2.21639C2.43054 2.53788 2.24993 2.97391 2.24993 3.42857V17.1429C2.24993 17.5975 2.43054 18.0335 2.75203 18.355C3.07352 18.6765 3.50956 18.8571 3.96422 18.8571ZM5.6785 12V20.5714C5.6785 21.0261 5.85911 21.4621 6.1806 21.7836C6.50209 22.1051 6.93813 22.2857 7.39279 22.2857H24.5356C24.9903 22.2857 25.4263 22.1051 25.7478 21.7836C26.0693 21.4621 26.2499 21.0261 26.2499 20.5714V12H5.6785ZM26.2499 10.2857V6.85714C26.2499 6.40249 26.0693 5.96645 25.7478 5.64496C25.4263 5.32347 24.9903 5.14286 24.5356 5.14286H7.39279C6.93813 5.14286 6.50209 5.32347 6.1806 5.64496C5.85911 5.96645 5.6785 6.40249 5.6785 6.85714V10.2857H26.2499Z" fill="#E5F4FD"/>
</svg>
