<svg width="23" height="24" viewBox="0 0 23 24" fill="none" xmlns="http://www.w3.org/2000/svg">
<path d="M12.3569 0.251802C12.2773 0.171984 12.1827 0.108658 12.0786 0.0654494C11.9744 0.0222411 11.8628 0 11.7501 0C11.6373 0 11.5257 0.0222411 11.4216 0.0654494C11.3174 0.108658 11.2229 0.171984 11.1432 0.251802L0.858181 10.5369C0.77864 10.6166 0.715596 10.7112 0.672653 10.8154C0.62971 10.9195 0.60771 11.031 0.607912 11.1437V23.1429C0.607912 23.3702 0.698212 23.5882 0.858947 23.749C1.01968 23.9097 1.23769 24 1.465 24H9.17879C9.40611 24 9.62411 23.9097 9.78485 23.749C9.94558 23.5882 10.0359 23.3702 10.0359 23.1429V16.2862H13.4642V23.1429C13.4642 23.3702 13.5545 23.5882 13.7153 23.749C13.876 23.9097 14.094 24 14.3213 24H22.0351C22.2624 24 22.4804 23.9097 22.6412 23.749C22.8019 23.5882 22.8922 23.3702 22.8922 23.1429V11.1437C22.8924 11.031 22.8704 10.9195 22.8275 10.8154C22.7845 10.7112 22.7215 10.6166 22.6419 10.5369L20.3209 8.21758V2.5728C20.3209 2.34548 20.2306 2.12748 20.0699 1.96674C19.9092 1.80601 19.6912 1.71571 19.4639 1.71571H17.7497C17.5224 1.71571 17.3044 1.80601 17.1436 1.96674C16.9829 2.12748 16.8926 2.34548 16.8926 2.5728V4.78923L12.3569 0.251802ZM2.32209 22.2858V11.4985L11.7501 2.07054L21.178 11.4985V22.2858H15.1784V15.4291C15.1784 15.2018 15.0881 14.9838 14.9274 14.8231C14.7666 14.6623 14.5486 14.572 14.3213 14.572H9.17879C8.95148 14.572 8.73348 14.6623 8.57274 14.8231C8.41201 14.9838 8.32171 15.2018 8.32171 15.4291V22.2858H2.32209Z" fill="#E5F4FD"/>
</svg>
