<svg width="33" height="24" viewBox="0 0 33 24" fill="none" xmlns="http://www.w3.org/2000/svg">
<path d="M0.25 4C0.25 2.93913 0.671427 1.92172 1.42157 1.17157C2.17172 0.421427 3.18913 0 4.25 0H28.25C29.3109 0 30.3283 0.421427 31.0784 1.17157C31.8286 1.92172 32.25 2.93913 32.25 4V20C32.25 21.0609 31.8286 22.0783 31.0784 22.8284C30.3283 23.5786 29.3109 24 28.25 24H4.25C3.18913 24 2.17172 23.5786 1.42157 22.8284C0.671427 22.0783 0.25 21.0609 0.25 20V4ZM4.25 2C3.71957 2 3.21086 2.21071 2.83579 2.58579C2.46071 2.96086 2.25 3.46957 2.25 4V4.434L16.25 12.834L30.25 4.434V4C30.25 3.46957 30.0393 2.96086 29.6642 2.58579C29.2891 2.21071 28.7804 2 28.25 2H4.25ZM30.25 6.766L20.834 12.416L30.25 18.21V6.766ZM30.182 20.518L18.902 13.576L16.25 15.166L13.598 13.576L2.318 20.516C2.43165 20.9416 2.68263 21.3178 3.03198 21.5861C3.38133 21.8544 3.80949 21.9999 4.25 22H28.25C28.6902 22.0001 29.1182 21.8548 29.4675 21.5869C29.8168 21.3189 30.068 20.9432 30.182 20.518ZM2.25 18.21L11.666 12.416L2.25 6.766V18.21Z" fill="#E5F4FD"/>
</svg>
